<svg xmlns="http://www.w3.org/2000/svg" xmlns:xlink="http://www.w3.org/1999/xlink" width="500" zoomAndPan="magnify" viewBox="0 0 375 374.999991" height="500" preserveAspectRatio="xMidYMid meet" version="1.0"><defs><g/><clipPath id="7fb31871e4"><rect x="0" width="226" y="0" height="91"/></clipPath><clipPath id="caef22bf8e"><rect x="0" width="269" y="0" height="15"/></clipPath></defs><g transform="matrix(1, 0, 0, 1, 83, 137)"><g clip-path="url(#7fb31871e4)"><g fill="#000000" fill-opacity="1"><g transform="translate(0.999472, 65.585874)"><g><path d="M 64.078125 11.5 C 58.472656 11.5 53.890625 9.71875 50.328125 6.15625 C 47.679688 3.507812 45.9375 0.179688 45.09375 -3.828125 C 40.90625 -0.660156 35.769531 0.921875 29.6875 0.921875 C 24.882812 0.921875 20.507812 -0.125 16.5625 -2.21875 C 12.613281 -4.3125 9.523438 -7.1875 7.296875 -10.84375 C 5.078125 -14.5 3.96875 -18.617188 3.96875 -23.203125 C 3.96875 -27.796875 5.078125 -31.929688 7.296875 -35.609375 C 9.523438 -39.285156 12.601562 -42.140625 16.53125 -44.171875 C 20.457031 -46.203125 24.84375 -47.21875 29.6875 -47.21875 C 35.769531 -47.21875 41.128906 -45.71875 45.765625 -42.71875 L 47.078125 -33.390625 L 46.484375 -33.390625 C 45.160156 -38.503906 42.164062 -41.988281 37.5 -43.84375 C 35.195312 -44.769531 32.59375 -45.234375 29.6875 -45.234375 C 23.738281 -45.234375 18.789062 -43.160156 14.84375 -39.015625 C 10.894531 -34.867188 8.921875 -29.609375 8.921875 -23.234375 C 8.921875 -16.867188 10.90625 -11.59375 14.875 -7.40625 C 18.84375 -3.21875 23.78125 -1.101562 29.6875 -1.0625 C 32.550781 -1.0625 35.285156 -1.566406 37.890625 -2.578125 C 40.492188 -3.585938 42.71875 -5 44.5625 -6.8125 L 44.5625 -18.515625 C 44.5625 -19.484375 44.273438 -20.21875 43.703125 -20.71875 C 43.128906 -21.226562 42.316406 -21.484375 41.265625 -21.484375 L 40.203125 -21.484375 L 40.203125 -22.15625 L 53.171875 -22.15625 L 53.171875 -21.484375 L 52.171875 -21.484375 C 51.066406 -21.484375 50.226562 -21.226562 49.65625 -20.71875 C 49.082031 -20.21875 48.816406 -19.484375 48.859375 -18.515625 L 48.859375 -8.328125 C 49.128906 -1.367188 51.398438 3.609375 55.671875 6.609375 C 58.671875 8.722656 62.550781 9.78125 67.3125 9.78125 C 69.300781 9.78125 71.460938 9.582031 73.796875 9.1875 L 73.859375 9.859375 C 70.335938 10.953125 67.078125 11.5 64.078125 11.5 Z M 64.078125 11.5 "/></g></g></g><g fill="#000000" fill-opacity="1"><g transform="translate(56.946397, 65.585874)"><g><path d="M 16.53125 1.25 C 25.914062 4.519531 32.957031 6.738281 37.65625 7.90625 C 42.351562 9.070312 46.382812 9.65625 49.75 9.65625 C 53.125 9.65625 56.84375 8.882812 60.90625 7.34375 L 61.234375 7.875 C 55.859375 11.570312 50.4375 13.421875 44.96875 13.421875 C 39.363281 13.421875 32.992188 11.679688 25.859375 8.203125 C 20.347656 5.460938 16.929688 3.804688 15.609375 3.234375 C 10.890625 1.117188 7.007812 0.0390625 3.96875 0 L 3.96875 -0.65625 L 4.828125 -0.65625 C 5.972656 -0.65625 6.953125 -1.050781 7.765625 -1.84375 C 8.585938 -2.644531 9.019531 -3.640625 9.0625 -4.828125 L 9.0625 -41.453125 C 9.019531 -42.597656 8.585938 -43.578125 7.765625 -44.390625 C 6.953125 -45.210938 5.972656 -45.625 4.828125 -45.625 L 3.96875 -45.625 L 3.96875 -46.28125 L 18.453125 -46.28125 L 18.453125 -45.625 L 17.59375 -45.625 C 16.445312 -45.625 15.453125 -45.210938 14.609375 -44.390625 C 13.773438 -43.578125 13.359375 -42.597656 13.359375 -41.453125 L 13.359375 -3.3125 C 13.359375 -2.507812 13.398438 -1.898438 13.484375 -1.484375 C 13.578125 -1.066406 13.863281 -0.59375 14.34375 -0.0625 C 14.832031 0.46875 15.5625 0.90625 16.53125 1.25 Z M 16.53125 1.25 "/></g></g></g><g fill="#000000" fill-opacity="1"><g transform="translate(83.464972, 65.585874)"><g><path d="M 18.3125 -30.875 C 18.132812 -31.445312 18.046875 -31.941406 18.046875 -32.359375 C 18.046875 -32.785156 18.066406 -33.257812 18.109375 -33.78125 C 18.160156 -34.3125 18.257812 -35.039062 18.40625 -35.96875 C 18.5625 -36.894531 18.859375 -37.8125 19.296875 -38.71875 C 19.742188 -39.625 20.253906 -40.492188 20.828125 -41.328125 C 21.398438 -42.160156 22.140625 -42.929688 23.046875 -43.640625 C 23.953125 -44.347656 24.953125 -44.96875 26.046875 -45.5 C 28.390625 -46.644531 31.234375 -47.21875 34.578125 -47.21875 C 41.328125 -47.21875 46.828125 -44.976562 51.078125 -40.5 C 55.335938 -36.03125 57.46875 -30.3125 57.46875 -23.34375 C 57.46875 -16.375 54.953125 -10.585938 49.921875 -5.984375 C 44.898438 -1.378906 38.53125 0.921875 30.8125 0.921875 C 23.101562 0.921875 16.703125 -1.367188 11.609375 -5.953125 C 6.515625 -10.535156 3.96875 -16.488281 3.96875 -23.8125 C 3.96875 -28.519531 5.066406 -32.703125 7.265625 -36.359375 C 9.472656 -40.023438 12.628906 -42.894531 16.734375 -44.96875 L 17.125 -44.375 C 14.257812 -42.476562 12.195312 -39.742188 10.9375 -36.171875 C 9.6875 -32.597656 9.0625 -28.804688 9.0625 -24.796875 C 9.0625 -17.347656 11.085938 -11.53125 15.140625 -7.34375 C 19.191406 -3.15625 24.390625 -1.0625 30.734375 -1.0625 C 37.085938 -1.0625 42.28125 -3.164062 46.3125 -7.375 C 50.351562 -11.582031 52.375 -17.125 52.375 -24 C 52.375 -29.957031 50.773438 -34.984375 47.578125 -39.078125 C 44.378906 -43.179688 39.867188 -45.234375 34.046875 -45.234375 C 31.453125 -45.234375 29.097656 -44.769531 26.984375 -43.84375 C 23.140625 -42.207031 20.601562 -39.519531 19.375 -35.78125 C 19.019531 -34.675781 18.84375 -33.722656 18.84375 -32.921875 C 18.84375 -32.128906 18.890625 -31.492188 18.984375 -31.015625 Z M 18.3125 -30.875 "/></g></g></g><g fill="#000000" fill-opacity="1"><g transform="translate(144.900779, 65.585874)"><g><path d="M 78.8125 -62.421875 C 79.125 -62.421875 79.410156 -62.421875 79.671875 -62.421875 L 79.671875 -61.765625 C 77.597656 -61.671875 75.632812 -61.179688 73.78125 -60.296875 C 71.9375 -59.421875 70.375 -58.375 69.09375 -57.15625 C 67.8125 -55.945312 66.625 -54.484375 65.53125 -52.765625 C 63.757812 -50.035156 62.257812 -46.90625 61.03125 -43.375 L 48.328125 -6.546875 C 47.453125 -3.765625 46.96875 -1.316406 46.875 0.796875 L 46.28125 0.796875 L 32.796875 -36.96875 L 22.140625 -3.640625 C 20.554688 1.335938 18.003906 5.21875 14.484375 8 C 11.921875 10.070312 9.050781 11.109375 5.875 11.109375 C 4.78125 11.109375 3.613281 10.976562 2.375 10.71875 L 2.515625 10.046875 C 3.171875 10.179688 3.925781 10.25 4.78125 10.25 C 5.644531 10.25 6.789062 9.984375 8.21875 9.453125 C 9.65625 8.921875 11.082031 7.972656 12.5 6.609375 C 15.363281 3.835938 17.566406 0.359375 19.109375 -3.828125 L 5.75 -41.59375 C 5.21875 -42.914062 4.398438 -43.914062 3.296875 -44.59375 C 2.203125 -45.28125 1.082031 -45.625 -0.0625 -45.625 L -0.59375 -45.625 L -0.59375 -46.28125 L 14.078125 -46.28125 L 14.078125 -45.625 L 13.484375 -45.625 C 12.554688 -45.625 11.859375 -45.328125 11.390625 -44.734375 C 10.929688 -44.140625 10.703125 -43.578125 10.703125 -43.046875 C 10.703125 -42.515625 10.769531 -42.03125 10.90625 -41.59375 L 20.953125 -9.390625 L 33.25 -47.34375 L 33.859375 -47.28125 L 46.9375 -10.640625 L 56.734375 -43.375 C 57.878906 -47.207031 59.640625 -50.671875 62.015625 -53.765625 C 66.429688 -59.535156 72.03125 -62.421875 78.8125 -62.421875 Z M 78.8125 -62.421875 "/></g></g></g></g></g><g fill="#000000" fill-opacity="1"><g transform="translate(134.93235, 235.499985)"><g><path d="M 104.796875 -1.59375 L 107.03125 -1.59375 L 107.03125 0 L 68.28125 0 L 68.28125 -1.59375 L 70.1875 -1.59375 C 72.507812 -1.59375 74.304688 -2.648438 75.578125 -4.765625 C 76.328125 -5.929688 76.703125 -7.039062 76.703125 -8.09375 C 76.703125 -9.15625 76.4375 -10.21875 75.90625 -11.28125 L 51.453125 -49.859375 L 20.796875 -4.921875 C 13.390625 5.878906 5.925781 13.660156 -1.59375 18.421875 C -7.625 22.128906 -14.238281 23.984375 -21.4375 23.984375 C -23.34375 23.984375 -25.25 23.875 -27.15625 23.65625 L -27.15625 22.078125 C -19.75 21.753906 -12.921875 18.84375 -6.671875 13.34375 C -1.378906 8.570312 3.644531 2.851562 8.40625 -3.8125 C 9.363281 -4.976562 10.847656 -6.988281 12.859375 -9.84375 L 46.53125 -57.484375 L 19.53125 -100.203125 C 16.988281 -103.910156 13.757812 -106.609375 9.84375 -108.296875 C 7.726562 -109.140625 5.609375 -109.5625 3.484375 -109.5625 L 1.265625 -109.5625 L 1.265625 -111.15625 L 39.703125 -111.15625 L 39.703125 -109.5625 L 37.796875 -109.5625 C 36.421875 -109.5625 35.097656 -109.035156 33.828125 -107.984375 C 31.171875 -105.753906 30.585938 -103.054688 32.078125 -99.890625 L 53.515625 -66.21875 L 84 -109.5625 C 90.988281 -119.414062 97.601562 -126.300781 103.84375 -130.21875 C 110.09375 -134.132812 116.867188 -136.09375 124.171875 -136.09375 C 125.546875 -136.09375 126.925781 -136.039062 128.3125 -135.9375 L 128.3125 -134.34375 C 123.226562 -134.238281 118.78125 -132.914062 114.96875 -130.375 C 112.957031 -128.894531 111.207031 -127.625 109.71875 -126.5625 C 108.238281 -125.5 106.519531 -123.800781 104.5625 -121.46875 C 102.601562 -119.144531 101.171875 -117.453125 100.265625 -116.390625 C 99.367188 -115.335938 97.941406 -113.460938 95.984375 -110.765625 C 94.023438 -108.066406 92.835938 -106.453125 92.421875 -105.921875 L 58.109375 -58.90625 L 88.765625 -10.796875 C 90.671875 -8.148438 93.023438 -5.953125 95.828125 -4.203125 C 98.640625 -2.460938 101.628906 -1.59375 104.796875 -1.59375 Z M 104.796875 -1.59375 "/></g></g></g><g transform="matrix(1, 0, 0, 1, 56, 171)"><g clip-path="url(#caef22bf8e)"><g fill="#000000" fill-opacity="1"><g transform="translate(0.91891, 11.651437)"><g><path d="M 5.3125 -6.25 L 2.09375 -6.25 L 2.09375 -4.234375 L 5.140625 -4.234375 L 5.140625 -3.0625 L 2.09375 -3.0625 L 2.09375 0 L 0.765625 0 L 0.765625 -7.421875 L 5.3125 -7.421875 Z M 5.3125 -6.25 "/></g></g></g><g fill="#000000" fill-opacity="1"><g transform="translate(12.934211, 11.651437)"><g/></g></g><g fill="#000000" fill-opacity="1"><g transform="translate(22.119317, 11.651437)"><g><path d="M -0.109375 0 L 3.0625 -7.421875 L 4.21875 -7.421875 L 7.25 0 L 5.875 0 L 5.203125 -1.6875 L 1.96875 -1.6875 L 1.28125 0 Z M 2.4375 -2.828125 L 4.765625 -2.828125 L 3.609375 -5.75 Z M 2.4375 -2.828125 "/></g></g></g><g fill="#000000" fill-opacity="1"><g transform="translate(35.951782, 11.651437)"><g/></g></g><g fill="#000000" fill-opacity="1"><g transform="translate(45.136887, 11.651437)"><g><path d="M 3.078125 0.09375 C 2.203125 0.09375 1.519531 -0.0976562 1.03125 -0.484375 C 0.539062 -0.878906 0.265625 -1.453125 0.203125 -2.203125 L 1.46875 -2.390625 C 1.59375 -1.503906 2.148438 -1.0625 3.140625 -1.0625 C 3.566406 -1.0625 3.894531 -1.144531 4.125 -1.3125 C 4.363281 -1.476562 4.484375 -1.71875 4.484375 -2.03125 C 4.484375 -2.3125 4.363281 -2.519531 4.125 -2.65625 C 3.894531 -2.800781 3.515625 -2.9375 2.984375 -3.0625 C 2.503906 -3.175781 2.085938 -3.316406 1.734375 -3.484375 C 1.390625 -3.648438 1.125 -3.867188 0.9375 -4.140625 C 0.75 -4.421875 0.65625 -4.796875 0.65625 -5.265625 C 0.65625 -5.703125 0.769531 -6.085938 1 -6.421875 C 1.226562 -6.765625 1.539062 -7.035156 1.9375 -7.234375 C 2.332031 -7.429688 2.789062 -7.53125 3.3125 -7.53125 C 4 -7.53125 4.5625 -7.347656 5 -6.984375 C 5.445312 -6.617188 5.707031 -6.117188 5.78125 -5.484375 L 4.59375 -5.296875 C 4.445312 -6.015625 4 -6.375 3.25 -6.375 C 2.882812 -6.375 2.585938 -6.28125 2.359375 -6.09375 C 2.140625 -5.90625 2.03125 -5.660156 2.03125 -5.359375 C 2.03125 -5.046875 2.140625 -4.804688 2.359375 -4.640625 C 2.585938 -4.484375 2.96875 -4.34375 3.5 -4.21875 C 3.976562 -4.101562 4.390625 -3.96875 4.734375 -3.8125 C 5.085938 -3.664062 5.359375 -3.457031 5.546875 -3.1875 C 5.742188 -2.925781 5.84375 -2.566406 5.84375 -2.109375 C 5.84375 -1.679688 5.722656 -1.300781 5.484375 -0.96875 C 5.253906 -0.632812 4.929688 -0.375 4.515625 -0.1875 C 4.109375 0 3.628906 0.09375 3.078125 0.09375 Z M 3.078125 0.09375 "/></g></g></g><g fill="#000000" fill-opacity="1"><g transform="translate(57.904115, 11.651437)"><g/></g></g><g fill="#000000" fill-opacity="1"><g transform="translate(67.089221, 11.651437)"><g><path d="M 0.765625 0 L 0.765625 -7.421875 L 2.125 -7.421875 L 2.125 -4.34375 L 5.640625 -4.34375 L 5.640625 -7.421875 L 7 -7.421875 L 7 0 L 5.640625 0 L 5.640625 -3.15625 L 2.125 -3.15625 L 2.125 0 Z M 0.765625 0 "/></g></g></g><g fill="#000000" fill-opacity="1"><g transform="translate(81.485636, 11.651437)"><g/></g></g><g fill="#000000" fill-opacity="1"><g transform="translate(90.670742, 11.651437)"><g><path d="M 0.765625 0 L 0.765625 -7.421875 L 2.125 -7.421875 L 2.125 0 Z M 0.765625 0 "/></g></g></g><g fill="#000000" fill-opacity="1"><g transform="translate(100.200484, 11.651437)"><g/></g></g><g fill="#000000" fill-opacity="1"><g transform="translate(109.38559, 11.651437)"><g><path d="M 4.0625 0.09375 C 3.3125 0.101562 2.664062 -0.0351562 2.125 -0.328125 C 1.59375 -0.617188 1.179688 -1.039062 0.890625 -1.59375 C 0.609375 -2.144531 0.46875 -2.804688 0.46875 -3.578125 C 0.46875 -4.347656 0.617188 -5.03125 0.921875 -5.625 C 1.234375 -6.21875 1.671875 -6.679688 2.234375 -7.015625 C 2.796875 -7.359375 3.457031 -7.53125 4.21875 -7.53125 C 4.90625 -7.53125 5.503906 -7.375 6.015625 -7.0625 C 6.535156 -6.757812 6.9375 -6.332031 7.21875 -5.78125 C 7.507812 -5.238281 7.65625 -4.597656 7.65625 -3.859375 C 7.65625 -3.054688 7.5 -2.359375 7.1875 -1.765625 C 6.875 -1.179688 6.445312 -0.722656 5.90625 -0.390625 C 5.363281 -0.0664062 4.75 0.09375 4.0625 0.09375 Z M 4.03125 -1.125 C 4.46875 -1.125 4.851562 -1.234375 5.1875 -1.453125 C 5.53125 -1.671875 5.796875 -1.976562 5.984375 -2.375 C 6.171875 -2.78125 6.265625 -3.273438 6.265625 -3.859375 C 6.265625 -4.597656 6.078125 -5.191406 5.703125 -5.640625 C 5.328125 -6.085938 4.820312 -6.3125 4.1875 -6.3125 C 3.738281 -6.3125 3.335938 -6.195312 2.984375 -5.96875 C 2.628906 -5.738281 2.347656 -5.421875 2.140625 -5.015625 C 1.941406 -4.609375 1.84375 -4.132812 1.84375 -3.59375 C 1.84375 -2.8125 2.035156 -2.203125 2.421875 -1.765625 C 2.816406 -1.335938 3.351562 -1.125 4.03125 -1.125 Z M 4.03125 -1.125 "/></g></g></g><g fill="#000000" fill-opacity="1"><g transform="translate(124.147523, 11.651437)"><g/></g></g><g fill="#000000" fill-opacity="1"><g transform="translate(133.332629, 11.651437)"><g><path d="M 5.640625 -7.421875 L 6.953125 -7.421875 L 6.953125 0 L 5.765625 0 L 2.0625 -5.171875 L 2.0625 0 L 0.765625 0 L 0.765625 -7.421875 L 1.953125 -7.421875 L 5.640625 -2.25 Z M 5.640625 -7.421875 "/></g></g></g><g fill="#000000" fill-opacity="1"><g transform="translate(147.695704, 11.651437)"><g/></g></g><g fill="#000000" fill-opacity="1"><g transform="translate(156.880809, 11.651437)"><g/></g></g><g fill="#000000" fill-opacity="1"><g transform="translate(166.066493, 11.651437)"><g><path d="M 3.078125 0.09375 C 2.203125 0.09375 1.519531 -0.0976562 1.03125 -0.484375 C 0.539062 -0.878906 0.265625 -1.453125 0.203125 -2.203125 L 1.46875 -2.390625 C 1.59375 -1.503906 2.148438 -1.0625 3.140625 -1.0625 C 3.566406 -1.0625 3.894531 -1.144531 4.125 -1.3125 C 4.363281 -1.476562 4.484375 -1.71875 4.484375 -2.03125 C 4.484375 -2.3125 4.363281 -2.519531 4.125 -2.65625 C 3.894531 -2.800781 3.515625 -2.9375 2.984375 -3.0625 C 2.503906 -3.175781 2.085938 -3.316406 1.734375 -3.484375 C 1.390625 -3.648438 1.125 -3.867188 0.9375 -4.140625 C 0.75 -4.421875 0.65625 -4.796875 0.65625 -5.265625 C 0.65625 -5.703125 0.769531 -6.085938 1 -6.421875 C 1.226562 -6.765625 1.539062 -7.035156 1.9375 -7.234375 C 2.332031 -7.429688 2.789062 -7.53125 3.3125 -7.53125 C 4 -7.53125 4.5625 -7.347656 5 -6.984375 C 5.445312 -6.617188 5.707031 -6.117188 5.78125 -5.484375 L 4.59375 -5.296875 C 4.445312 -6.015625 4 -6.375 3.25 -6.375 C 2.882812 -6.375 2.585938 -6.28125 2.359375 -6.09375 C 2.140625 -5.90625 2.03125 -5.660156 2.03125 -5.359375 C 2.03125 -5.046875 2.140625 -4.804688 2.359375 -4.640625 C 2.585938 -4.484375 2.96875 -4.34375 3.5 -4.21875 C 3.976562 -4.101562 4.390625 -3.96875 4.734375 -3.8125 C 5.085938 -3.664062 5.359375 -3.457031 5.546875 -3.1875 C 5.742188 -2.925781 5.84375 -2.566406 5.84375 -2.109375 C 5.84375 -1.679688 5.722656 -1.300781 5.484375 -0.96875 C 5.253906 -0.632812 4.929688 -0.375 4.515625 -0.1875 C 4.109375 0 3.628906 0.09375 3.078125 0.09375 Z M 3.078125 0.09375 "/></g></g></g><g fill="#000000" fill-opacity="1"><g transform="translate(178.833721, 11.651437)"><g/></g></g><g fill="#000000" fill-opacity="1"><g transform="translate(188.018827, 11.651437)"><g><path d="M 6.140625 -7.421875 L 5.984375 -6.234375 L 3.671875 -6.234375 L 3.671875 0 L 2.328125 0 L 2.328125 -6.234375 L -0.0625 -6.234375 L -0.0625 -7.421875 Z M 6.140625 -7.421875 "/></g></g></g><g fill="#000000" fill-opacity="1"><g transform="translate(200.66073, 11.651437)"><g/></g></g><g fill="#000000" fill-opacity="1"><g transform="translate(209.845835, 11.651437)"><g><path d="M 4.0625 0.09375 C 3.3125 0.101562 2.664062 -0.0351562 2.125 -0.328125 C 1.59375 -0.617188 1.179688 -1.039062 0.890625 -1.59375 C 0.609375 -2.144531 0.46875 -2.804688 0.46875 -3.578125 C 0.46875 -4.347656 0.617188 -5.03125 0.921875 -5.625 C 1.234375 -6.21875 1.671875 -6.679688 2.234375 -7.015625 C 2.796875 -7.359375 3.457031 -7.53125 4.21875 -7.53125 C 4.90625 -7.53125 5.503906 -7.375 6.015625 -7.0625 C 6.535156 -6.757812 6.9375 -6.332031 7.21875 -5.78125 C 7.507812 -5.238281 7.65625 -4.597656 7.65625 -3.859375 C 7.65625 -3.054688 7.5 -2.359375 7.1875 -1.765625 C 6.875 -1.179688 6.445312 -0.722656 5.90625 -0.390625 C 5.363281 -0.0664062 4.75 0.09375 4.0625 0.09375 Z M 4.03125 -1.125 C 4.46875 -1.125 4.851562 -1.234375 5.1875 -1.453125 C 5.53125 -1.671875 5.796875 -1.976562 5.984375 -2.375 C 6.171875 -2.78125 6.265625 -3.273438 6.265625 -3.859375 C 6.265625 -4.597656 6.078125 -5.191406 5.703125 -5.640625 C 5.328125 -6.085938 4.820312 -6.3125 4.1875 -6.3125 C 3.738281 -6.3125 3.335938 -6.195312 2.984375 -5.96875 C 2.628906 -5.738281 2.347656 -5.421875 2.140625 -5.015625 C 1.941406 -4.609375 1.84375 -4.132812 1.84375 -3.59375 C 1.84375 -2.8125 2.035156 -2.203125 2.421875 -1.765625 C 2.816406 -1.335938 3.351562 -1.125 4.03125 -1.125 Z M 4.03125 -1.125 "/></g></g></g><g fill="#000000" fill-opacity="1"><g transform="translate(224.607769, 11.651437)"><g/></g></g><g fill="#000000" fill-opacity="1"><g transform="translate(233.792875, 11.651437)"><g><path d="M 6.625 -1.296875 L 6.9375 -0.234375 C 6.800781 -0.128906 6.628906 -0.0507812 6.421875 0 C 6.222656 0.0625 6.015625 0.09375 5.796875 0.09375 C 5.015625 0.09375 4.398438 -0.25 3.953125 -0.9375 L 2.875 -2.59375 C 2.757812 -2.769531 2.644531 -2.890625 2.53125 -2.953125 C 2.414062 -3.023438 2.285156 -3.0625 2.140625 -3.0625 L 2.09375 -3.0625 L 2.09375 0 L 0.765625 0 L 0.765625 -7.421875 L 3.078125 -7.421875 C 4.015625 -7.421875 4.722656 -7.222656 5.203125 -6.828125 C 5.691406 -6.441406 5.9375 -5.910156 5.9375 -5.234375 C 5.9375 -4.816406 5.84375 -4.457031 5.65625 -4.15625 C 5.476562 -3.863281 5.234375 -3.628906 4.921875 -3.453125 C 4.609375 -3.285156 4.253906 -3.175781 3.859375 -3.125 C 4.066406 -3.007812 4.257812 -2.820312 4.4375 -2.5625 L 5.015625 -1.6875 C 5.171875 -1.46875 5.316406 -1.316406 5.453125 -1.234375 C 5.585938 -1.148438 5.757812 -1.109375 5.96875 -1.109375 C 6.207031 -1.109375 6.425781 -1.171875 6.625 -1.296875 Z M 2.984375 -6.3125 L 2.09375 -6.3125 L 2.09375 -4.125 L 2.921875 -4.125 C 3.492188 -4.125 3.914062 -4.210938 4.1875 -4.390625 C 4.457031 -4.566406 4.59375 -4.847656 4.59375 -5.234375 C 4.59375 -5.953125 4.054688 -6.3125 2.984375 -6.3125 Z M 2.984375 -6.3125 "/></g></g></g><g fill="#000000" fill-opacity="1"><g transform="translate(246.988283, 11.651437)"><g/></g></g><g fill="#000000" fill-opacity="1"><g transform="translate(256.173388, 11.651437)"><g><path d="M 5.546875 -6.25 L 2.09375 -6.25 L 2.09375 -4.34375 L 5.375 -4.34375 L 5.375 -3.171875 L 2.09375 -3.171875 L 2.09375 -1.171875 L 5.671875 -1.171875 L 5.578125 0 L 0.765625 0 L 0.765625 -7.421875 L 5.546875 -7.421875 Z M 5.546875 -6.25 "/></g></g></g></g></g></svg>