<?xml version="1.0" encoding="UTF-8" standalone="no"?>
<!-- Created with Inkscape (http://www.inkscape.org/) -->

<svg
   width="93.528275mm"
   height="57.021618mm"
   viewBox="0 0 93.528275 57.021617"
   version="1.1"
   id="svg1"
   xml:space="preserve"
   inkscape:version="1.4 (86a8ad7, 2024-10-11)"
   sodipodi:docname="logo corto.svg"
   xmlns:inkscape="http://www.inkscape.org/namespaces/inkscape"
   xmlns:sodipodi="http://sodipodi.sourceforge.net/DTD/sodipodi-0.dtd"
   xmlns="http://www.w3.org/2000/svg"
   xmlns:svg="http://www.w3.org/2000/svg"><sodipodi:namedview
     id="namedview1"
     pagecolor="#ffffff"
     bordercolor="#000000"
     borderopacity="0.25"
     inkscape:showpageshadow="2"
     inkscape:pageopacity="0.0"
     inkscape:pagecheckerboard="0"
     inkscape:deskcolor="#d1d1d1"
     inkscape:document-units="mm"
     inkscape:zoom="2.7868023"
     inkscape:cx="188.02913"
     inkscape:cy="47.545533"
     inkscape:window-width="1366"
     inkscape:window-height="705"
     inkscape:window-x="-8"
     inkscape:window-y="-8"
     inkscape:window-maximized="1"
     inkscape:current-layer="layer1"><inkscape:page
       x="0"
       y="0"
       width="93.528275"
       height="57.021618"
       id="page93"
       margin="0"
       bleed="0" /></sodipodi:namedview><defs
     id="defs1"><g
       id="g1" /><clipPath
       id="7fb31871e4"><rect
         x="0"
         width="226"
         y="0"
         height="91"
         id="rect1" /></clipPath><clipPath
       id="caef22bf8e"><rect
         x="0"
         width="269"
         y="0"
         height="15"
         id="rect2" /></clipPath></defs><g
     inkscape:label="Capa 1"
     inkscape:groupmode="layer"
     id="layer1"
     transform="translate(-53.967682,-125.78063)"><g
       id="g93"
       transform="matrix(0.35277778,0,0,0.35277778,34.602629,91.013314)"><g
         transform="translate(83,137)"
         id="g15"><g
           clip-path="url(#7fb31871e4)"
           id="g14"><g
             fill="#000000"
             fill-opacity="1"
             id="g4"><g
               transform="translate(0.999472,65.585874)"
               id="g3"><g
                 id="g2"><path
                   d="m 64.078125,11.5 c -5.605469,0 -10.1875,-1.78125 -13.75,-5.34375 C 47.679688,3.507812 45.9375,0.179688 45.09375,-3.828125 c -4.1875,3.167969 -9.324219,4.75 -15.40625,4.75 -4.804688,0 -9.179688,-1.046875 -13.125,-3.140625 C 12.613281,-4.3125 9.523438,-7.1875 7.296875,-10.84375 5.078125,-14.5 3.96875,-18.617188 3.96875,-23.203125 c 0,-4.59375 1.109375,-8.726563 3.328125,-12.40625 2.226563,-3.675781 5.304687,-6.53125 9.234375,-8.5625 3.925781,-2.03125 8.3125,-3.046875 13.15625,-3.046875 6.082031,0 11.441406,1.5 16.078125,4.5 l 1.3125,9.328125 h -0.59375 C 45.160156,-38.503906 42.164062,-41.988281 37.5,-43.84375 c -2.304688,-0.925781 -4.90625,-1.390625 -7.8125,-1.390625 -5.949219,0 -10.898438,2.074219 -14.84375,6.21875 -3.949219,4.148437 -5.921875,9.40625 -5.921875,15.78125 0,6.367187 1.984375,11.640625 5.953125,15.828125 3.96875,4.1875 8.90625,6.304688 14.8125,6.34375 2.863281,0 5.597656,-0.503906 8.203125,-1.515625 C 40.492188,-3.585938 42.71875,-5 44.5625,-6.8125 v -11.703125 c 0,-0.96875 -0.289062,-1.703125 -0.859375,-2.203125 -0.574219,-0.507812 -1.386719,-0.765625 -2.4375,-0.765625 h -1.0625 v -0.671875 h 12.96875 v 0.671875 h -1 c -1.105469,0 -1.945313,0.257813 -2.515625,0.765625 -0.574219,0.5 -0.839844,1.234375 -0.796875,2.203125 v 10.1875 c 0.269531,6.960937 2.539063,11.9375 6.8125,14.9375 3,2.113281 6.878906,3.171875 11.640625,3.171875 1.988281,0 4.148438,-0.199219 6.484375,-0.59375 l 0.0625,0.671875 C 70.335938,10.953125 67.078125,11.5 64.078125,11.5 Z m 0,0"
                   id="path2" /></g></g></g><g
             fill="#000000"
             fill-opacity="1"
             id="g7"><g
               transform="translate(56.946397,65.585874)"
               id="g6"><g
                 id="g5"><path
                   d="m 16.53125,1.25 c 9.382812,3.269531 16.425781,5.488281 21.125,6.65625 4.695312,1.164062 8.726562,1.75 12.09375,1.75 3.375,0 7.09375,-0.773438 11.15625,-2.3125 L 61.234375,7.875 c -5.375,3.695312 -10.796875,5.546875 -16.265625,5.546875 -5.605469,0 -11.976562,-1.742187 -19.109375,-5.21875 -5.511719,-2.742187 -8.929687,-4.398437 -10.25,-4.96875 C 10.890625,1.117188 7.007812,0.0390625 3.96875,0 v -0.65625 h 0.859375 c 1.144531,0 2.125,-0.394531 2.9375,-1.1875 0.820313,-0.800781 1.253906,-1.796875 1.296875,-2.984375 v -36.625 c -0.042969,-1.144531 -0.476562,-2.125 -1.296875,-2.9375 C 6.953125,-45.210938 5.972656,-45.625 4.828125,-45.625 H 3.96875 v -0.65625 H 18.453125 V -45.625 H 17.59375 c -1.148438,0 -2.140625,0.414062 -2.984375,1.234375 -0.835937,0.8125 -1.25,1.792969 -1.25,2.9375 V -3.3125 c 0,0.804688 0.03906,1.414062 0.125,1.828125 0.09375,0.417969 0.378906,0.890625 0.859375,1.421875 0.488281,0.53125 1.21875,0.96875 2.1875,1.3125 z m 0,0"
                   id="path4" /></g></g></g><g
             fill="#000000"
             fill-opacity="1"
             id="g10"><g
               transform="translate(83.464972,65.585874)"
               id="g9"><g
                 id="g8"><path
                   d="m 18.3125,-30.875 c -0.179688,-0.570312 -0.265625,-1.066406 -0.265625,-1.484375 0,-0.425781 0.01953,-0.898437 0.0625,-1.421875 0.05078,-0.53125 0.148437,-1.257812 0.296875,-2.1875 0.15625,-0.925781 0.453125,-1.84375 0.890625,-2.75 0.445313,-0.90625 0.957031,-1.773438 1.53125,-2.609375 0.570313,-0.832031 1.3125,-1.601563 2.21875,-2.3125 0.90625,-0.707031 1.90625,-1.328125 3,-1.859375 2.34375,-1.144531 5.1875,-1.71875 8.53125,-1.71875 6.75,0 12.25,2.242188 16.5,6.71875 4.257813,4.46875 6.390625,10.1875 6.390625,17.15625 0,6.96875 -2.515625,12.757812 -7.546875,17.359375 -5.023437,4.605469 -11.390625,6.90625 -19.109375,6.90625 -7.710938,0 -14.109375,-2.289063 -19.203125,-6.875 C 6.515625,-10.535156 3.96875,-16.488281 3.96875,-23.8125 c 0,-4.707031 1.097656,-8.890625 3.296875,-12.546875 2.207031,-3.664063 5.363281,-6.535156 9.46875,-8.609375 L 17.125,-44.375 c -2.867188,1.898438 -4.929688,4.632812 -6.1875,8.203125 -1.25,3.574219 -1.875,7.367187 -1.875,11.375 0,7.449219 2.023438,13.265625 6.078125,17.453125 4.050781,4.1875 9.25,6.28125 15.59375,6.28125 6.351563,0 11.546875,-2.101562 15.578125,-6.3125 4.039062,-4.207031 6.0625,-9.75 6.0625,-16.625 0,-5.957031 -1.601562,-10.984375 -4.796875,-15.078125 -3.199219,-4.101563 -7.710937,-6.15625 -13.53125,-6.15625 -2.59375,0 -4.949219,0.464844 -7.0625,1.390625 -3.84375,1.636719 -6.382813,4.324219 -7.609375,8.0625 -0.355469,1.105469 -0.53125,2.058594 -0.53125,2.859375 0,0.792969 0.04687,1.429687 0.140625,1.90625 z m 0,0"
                   id="path7" /></g></g></g><g
             fill="#000000"
             fill-opacity="1"
             id="g13"><g
               transform="translate(144.90078,65.585874)"
               id="g12"><g
                 id="g11"><path
                   d="m 78.8125,-62.421875 c 0.3125,0 0.597656,0 0.859375,0 v 0.65625 c -2.074219,0.09375 -4.039063,0.585937 -5.890625,1.46875 -1.84375,0.875 -3.40625,1.921875 -4.6875,3.140625 -1.28125,1.210938 -2.46875,2.671875 -3.5625,4.390625 -1.773438,2.730469 -3.273438,5.859375 -4.5,9.390625 L 48.328125,-6.546875 c -0.875,2.78125 -1.359375,5.230469 -1.453125,7.34375 H 46.28125 L 32.796875,-36.96875 22.140625,-3.640625 C 20.554688,1.335938 18.003906,5.21875 14.484375,8 c -2.5625,2.070312 -5.433594,3.109375 -8.609375,3.109375 -1.09375,0 -2.261719,-0.132813 -3.5,-0.390625 L 2.515625,10.046875 C 3.171875,10.179688 3.925781,10.25 4.78125,10.25 c 0.863281,0 2.007812,-0.265625 3.4375,-0.796875 1.4375,-0.53125 2.863281,-1.480469 4.28125,-2.84375 2.863281,-2.773437 5.066406,-6.25 6.609375,-10.4375 L 5.75,-41.59375 c -0.53125,-1.320312 -1.351562,-2.320312 -2.453125,-3 C 2.203125,-45.28125 1.082031,-45.625 -0.0625,-45.625 h -0.53125 v -0.65625 h 14.671875 v 0.65625 h -0.59375 c -0.929687,0 -1.625,0.296875 -2.09375,0.890625 -0.460937,0.59375 -0.6875,1.15625 -0.6875,1.6875 0,0.53125 0.06641,1.015625 0.203125,1.453125 L 20.953125,-9.390625 33.25,-47.34375 33.859375,-47.28125 46.9375,-10.640625 56.734375,-43.375 c 1.144531,-3.832031 2.90625,-7.296875 5.28125,-10.390625 4.414063,-5.769531 10.015625,-8.65625 16.796875,-8.65625 z m 0,0"
                   id="path10" /></g></g></g></g></g><g
         fill="#000000"
         fill-opacity="1"
         id="g18"><g
           transform="translate(134.93235,235.49998)"
           id="g17"><g
             id="g16"><path
               d="m 104.79688,-1.59375 h 2.23437 V 0 h -38.75 v -1.59375 h 1.90625 c 2.320312,0 4.117188,-1.054688 5.390625,-3.171875 0.75,-1.164063 1.125,-2.273437 1.125,-3.328125 0,-1.0625 -0.265625,-2.125 -0.796875,-3.1875 l -24.453125,-38.578125 -30.65625,44.9375 C 13.390625,5.878906 5.925781,13.660156 -1.59375,18.421875 c -6.03125,3.707031 -12.644531,5.5625 -19.84375,5.5625 -1.90625,0 -3.8125,-0.109375 -5.71875,-0.328125 V 22.078125 C -19.75,21.753906 -12.921875,18.84375 -6.671875,13.34375 -1.378906,8.570312 3.644531,2.851562 8.40625,-3.8125 c 0.957031,-1.164062 2.441406,-3.175781 4.453125,-6.03125 l 33.671875,-47.640625 -27,-42.718755 c -2.542969,-3.70703 -5.773438,-6.40625 -9.6875,-8.09375 -2.117188,-0.84375 -4.234375,-1.26562 -6.359375,-1.26562 h -2.21875 v -1.59375 h 38.4375 v 1.59375 h -1.90625 c -1.375,0 -2.699219,0.52734 -3.96875,1.57812 -2.65625,2.23047 -3.242187,4.92969 -1.75,8.093755 L 53.515625,-66.21875 84,-109.5625 c 6.988281,-9.85156 13.601562,-16.73828 19.84375,-20.65625 6.25,-3.91406 13.02344,-5.875 20.32813,-5.875 1.375,0 2.7539,0.0547 4.14062,0.15625 v 1.59375 c -5.08594,0.10547 -9.53125,1.42969 -13.34375,3.96875 -2.01172,1.48047 -3.76172,2.75 -5.25,3.8125 -1.48047,1.0625 -3.19922,2.76172 -5.15625,5.09375 -1.96094,2.32422 -3.39062,4.01562 -4.29687,5.07812 -0.898442,1.05469 -2.324224,2.92969 -4.281255,5.625 -1.960937,2.69922 -3.148437,4.3125 -3.5625,4.84375 l -34.3125,47.01563 30.65625,48.109375 c 1.90625,2.648437 4.257813,4.84375 7.0625,6.59375 2.8125,1.742187 5.800785,2.609375 8.968755,2.609375 z m 0,0"
               id="path15" /></g></g></g><g
         transform="translate(56,171)"
         id="g92"><g
           clip-path="url(#caef22bf8e)"
           id="g91"><g
             fill="#000000"
             fill-opacity="1"
             id="g21"><g
               transform="translate(0.91891,11.651437)"
               id="g20"><g
                 id="g19"><path
                   d="M 5.3125,-6.25 H 2.09375 v 2.015625 H 5.140625 V -3.0625 H 2.09375 V 0 H 0.765625 V -7.421875 H 5.3125 Z m 0,0"
                   id="path18" /></g></g></g><g
             fill="#000000"
             fill-opacity="1"
             id="g24"><g
               transform="translate(12.934211,11.651437)"
               id="g23"><g
                 id="g22" /></g></g><g
             fill="#000000"
             fill-opacity="1"
             id="g27"><g
               transform="translate(22.119317,11.651437)"
               id="g26"><g
                 id="g25"><path
                   d="M -0.109375,0 3.0625,-7.421875 H 4.21875 L 7.25,0 H 5.875 L 5.203125,-1.6875 H 1.96875 L 1.28125,0 Z M 2.4375,-2.828125 H 4.765625 L 3.609375,-5.75 Z m 0,0"
                   id="path24" /></g></g></g><g
             fill="#000000"
             fill-opacity="1"
             id="g30"><g
               transform="translate(35.951782,11.651437)"
               id="g29"><g
                 id="g28" /></g></g><g
             fill="#000000"
             fill-opacity="1"
             id="g33"><g
               transform="translate(45.136887,11.651437)"
               id="g32"><g
                 id="g31"><path
                   d="m 3.078125,0.09375 c -0.875,0 -1.558594,-0.1914062 -2.046875,-0.578125 -0.492188,-0.394531 -0.765625,-0.96875 -0.828125,-1.71875 l 1.265625,-0.1875 c 0.125,0.886719 0.679688,1.328125 1.671875,1.328125 0.425781,0 0.753906,-0.082031 0.984375,-0.25 0.238281,-0.164062 0.359375,-0.40625 0.359375,-0.71875 0,-0.28125 -0.121094,-0.488281 -0.359375,-0.625 C 3.894531,-2.800781 3.515625,-2.9375 2.984375,-3.0625 2.503906,-3.175781 2.085938,-3.316406 1.734375,-3.484375 1.390625,-3.648438 1.125,-3.867188 0.9375,-4.140625 c -0.1875,-0.28125 -0.28125,-0.65625 -0.28125,-1.125 0,-0.4375 0.113281,-0.820313 0.34375,-1.15625 0.226562,-0.34375 0.539062,-0.613281 0.9375,-0.8125 0.394531,-0.195313 0.851562,-0.296875 1.375,-0.296875 0.6875,0 1.25,0.183594 1.6875,0.546875 0.445312,0.367187 0.707031,0.867187 0.78125,1.5 l -1.1875,0.1875 C 4.445312,-6.015625 4,-6.375 3.25,-6.375 c -0.367188,0 -0.664062,0.09375 -0.890625,0.28125 -0.21875,0.1875 -0.328125,0.433594 -0.328125,0.734375 0,0.3125 0.109375,0.554687 0.328125,0.71875 0.226563,0.15625 0.609375,0.296875 1.140625,0.421875 0.476562,0.117188 0.890625,0.25 1.234375,0.40625 0.351563,0.148438 0.625,0.355469 0.8125,0.625 0.195313,0.261719 0.296875,0.621094 0.296875,1.078125 0,0.429687 -0.121094,0.808594 -0.359375,1.140625 C 5.253906,-0.632812 4.929688,-0.375 4.515625,-0.1875 4.109375,0 3.628906,0.09375 3.078125,0.09375 Z m 0,0"
                   id="path30" /></g></g></g><g
             fill="#000000"
             fill-opacity="1"
             id="g36"><g
               transform="translate(57.904115,11.651437)"
               id="g35"><g
                 id="g34" /></g></g><g
             fill="#000000"
             fill-opacity="1"
             id="g39"><g
               transform="translate(67.089221,11.651437)"
               id="g38"><g
                 id="g37"><path
                   d="M 0.765625,0 V -7.421875 H 2.125 V -4.34375 H 5.640625 V -7.421875 H 7 V 0 H 5.640625 V -3.15625 H 2.125 V 0 Z m 0,0"
                   id="path36" /></g></g></g><g
             fill="#000000"
             fill-opacity="1"
             id="g42"><g
               transform="translate(81.485636,11.651437)"
               id="g41"><g
                 id="g40" /></g></g><g
             fill="#000000"
             fill-opacity="1"
             id="g45"><g
               transform="translate(90.670742,11.651437)"
               id="g44"><g
                 id="g43"><path
                   d="M 0.765625,0 V -7.421875 H 2.125 V 0 Z m 0,0"
                   id="path42" /></g></g></g><g
             fill="#000000"
             fill-opacity="1"
             id="g48"><g
               transform="translate(100.20048,11.651437)"
               id="g47"><g
                 id="g46" /></g></g><g
             fill="#000000"
             fill-opacity="1"
             id="g51"><g
               transform="translate(109.38559,11.651437)"
               id="g50"><g
                 id="g49"><path
                   d="M 4.0625,0.09375 C 3.3125,0.101562 2.664062,-0.0351562 2.125,-0.328125 1.59375,-0.617188 1.179688,-1.039062 0.890625,-1.59375 0.609375,-2.144531 0.46875,-2.804688 0.46875,-3.578125 c 0,-0.769531 0.148438,-1.453125 0.453125,-2.046875 0.3125,-0.59375 0.75,-1.054688 1.3125,-1.390625 0.5625,-0.34375 1.222656,-0.515625 1.984375,-0.515625 0.6875,0 1.285156,0.15625 1.796875,0.46875 0.519531,0.304688 0.921875,0.730469 1.203125,1.28125 0.289062,0.542969 0.4375,1.183594 0.4375,1.921875 0,0.804687 -0.15625,1.5 -0.46875,2.09375 -0.3125,0.585937 -0.742188,1.042969 -1.28125,1.375 C 5.363281,-0.0664062 4.75,0.09375 4.0625,0.09375 Z M 4.03125,-1.125 c 0.4375,0 0.820312,-0.109375 1.15625,-0.328125 0.34375,-0.21875 0.609375,-0.523437 0.796875,-0.921875 0.1875,-0.40625 0.28125,-0.898438 0.28125,-1.484375 0,-0.738281 -0.1875,-1.332031 -0.5625,-1.78125 C 5.328125,-6.085938 4.820312,-6.3125 4.1875,-6.3125 c -0.449219,0 -0.851562,0.117188 -1.203125,0.34375 -0.355469,0.230469 -0.636719,0.546875 -0.84375,0.953125 -0.199219,0.40625 -0.296875,0.882813 -0.296875,1.421875 0,0.78125 0.191406,1.390625 0.578125,1.828125 C 2.816406,-1.335938 3.351562,-1.125 4.03125,-1.125 Z m 0,0"
                   id="path48" /></g></g></g><g
             fill="#000000"
             fill-opacity="1"
             id="g54"><g
               transform="translate(124.14752,11.651437)"
               id="g53"><g
                 id="g52" /></g></g><g
             fill="#000000"
             fill-opacity="1"
             id="g57"><g
               transform="translate(133.33263,11.651437)"
               id="g56"><g
                 id="g55"><path
                   d="m 5.640625,-7.421875 h 1.3125 V 0 h -1.1875 L 2.0625,-5.171875 V 0 H 0.765625 v -7.421875 h 1.1875 L 5.640625,-2.25 Z m 0,0"
                   id="path54" /></g></g></g><g
             fill="#000000"
             fill-opacity="1"
             id="g60"><g
               transform="translate(147.6957,11.651437)"
               id="g59"><g
                 id="g58" /></g></g><g
             fill="#000000"
             fill-opacity="1"
             id="g63"><g
               transform="translate(156.88081,11.651437)"
               id="g62"><g
                 id="g61" /></g></g><g
             fill="#000000"
             fill-opacity="1"
             id="g66"><g
               transform="translate(166.06649,11.651437)"
               id="g65"><g
                 id="g64"><path
                   d="m 3.078125,0.09375 c -0.875,0 -1.558594,-0.1914062 -2.046875,-0.578125 -0.492188,-0.394531 -0.765625,-0.96875 -0.828125,-1.71875 l 1.265625,-0.1875 c 0.125,0.886719 0.679688,1.328125 1.671875,1.328125 0.425781,0 0.753906,-0.082031 0.984375,-0.25 0.238281,-0.164062 0.359375,-0.40625 0.359375,-0.71875 0,-0.28125 -0.121094,-0.488281 -0.359375,-0.625 C 3.894531,-2.800781 3.515625,-2.9375 2.984375,-3.0625 2.503906,-3.175781 2.085938,-3.316406 1.734375,-3.484375 1.390625,-3.648438 1.125,-3.867188 0.9375,-4.140625 c -0.1875,-0.28125 -0.28125,-0.65625 -0.28125,-1.125 0,-0.4375 0.113281,-0.820313 0.34375,-1.15625 0.226562,-0.34375 0.539062,-0.613281 0.9375,-0.8125 0.394531,-0.195313 0.851562,-0.296875 1.375,-0.296875 0.6875,0 1.25,0.183594 1.6875,0.546875 0.445312,0.367187 0.707031,0.867187 0.78125,1.5 l -1.1875,0.1875 C 4.445312,-6.015625 4,-6.375 3.25,-6.375 c -0.367188,0 -0.664062,0.09375 -0.890625,0.28125 -0.21875,0.1875 -0.328125,0.433594 -0.328125,0.734375 0,0.3125 0.109375,0.554687 0.328125,0.71875 0.226563,0.15625 0.609375,0.296875 1.140625,0.421875 0.476562,0.117188 0.890625,0.25 1.234375,0.40625 0.351563,0.148438 0.625,0.355469 0.8125,0.625 0.195313,0.261719 0.296875,0.621094 0.296875,1.078125 0,0.429687 -0.121094,0.808594 -0.359375,1.140625 C 5.253906,-0.632812 4.929688,-0.375 4.515625,-0.1875 4.109375,0 3.628906,0.09375 3.078125,0.09375 Z m 0,0"
                   id="path63" /></g></g></g><g
             fill="#000000"
             fill-opacity="1"
             id="g69"><g
               transform="translate(178.83372,11.651437)"
               id="g68"><g
                 id="g67" /></g></g><g
             fill="#000000"
             fill-opacity="1"
             id="g72"><g
               transform="translate(188.01883,11.651437)"
               id="g71"><g
                 id="g70"><path
                   d="m 6.140625,-7.421875 -0.15625,1.1875 h -2.3125 V 0 H 2.328125 V -6.234375 H -0.0625 v -1.1875 z m 0,0"
                   id="path69" /></g></g></g><g
             fill="#000000"
             fill-opacity="1"
             id="g75"><g
               transform="translate(200.66073,11.651437)"
               id="g74"><g
                 id="g73" /></g></g><g
             fill="#000000"
             fill-opacity="1"
             id="g78"><g
               transform="translate(209.84583,11.651437)"
               id="g77"><g
                 id="g76"><path
                   d="M 4.0625,0.09375 C 3.3125,0.101562 2.664062,-0.0351562 2.125,-0.328125 1.59375,-0.617188 1.179688,-1.039062 0.890625,-1.59375 0.609375,-2.144531 0.46875,-2.804688 0.46875,-3.578125 c 0,-0.769531 0.148438,-1.453125 0.453125,-2.046875 0.3125,-0.59375 0.75,-1.054688 1.3125,-1.390625 0.5625,-0.34375 1.222656,-0.515625 1.984375,-0.515625 0.6875,0 1.285156,0.15625 1.796875,0.46875 0.519531,0.304688 0.921875,0.730469 1.203125,1.28125 0.289062,0.542969 0.4375,1.183594 0.4375,1.921875 0,0.804687 -0.15625,1.5 -0.46875,2.09375 -0.3125,0.585937 -0.742188,1.042969 -1.28125,1.375 C 5.363281,-0.0664062 4.75,0.09375 4.0625,0.09375 Z M 4.03125,-1.125 c 0.4375,0 0.820312,-0.109375 1.15625,-0.328125 0.34375,-0.21875 0.609375,-0.523437 0.796875,-0.921875 0.1875,-0.40625 0.28125,-0.898438 0.28125,-1.484375 0,-0.738281 -0.1875,-1.332031 -0.5625,-1.78125 C 5.328125,-6.085938 4.820312,-6.3125 4.1875,-6.3125 c -0.449219,0 -0.851562,0.117188 -1.203125,0.34375 -0.355469,0.230469 -0.636719,0.546875 -0.84375,0.953125 -0.199219,0.40625 -0.296875,0.882813 -0.296875,1.421875 0,0.78125 0.191406,1.390625 0.578125,1.828125 C 2.816406,-1.335938 3.351562,-1.125 4.03125,-1.125 Z m 0,0"
                   id="path75" /></g></g></g><g
             fill="#000000"
             fill-opacity="1"
             id="g81"><g
               transform="translate(224.60777,11.651437)"
               id="g80"><g
                 id="g79" /></g></g><g
             fill="#000000"
             fill-opacity="1"
             id="g84"><g
               transform="translate(233.79287,11.651437)"
               id="g83"><g
                 id="g82"><path
                   d="m 6.625,-1.296875 0.3125,1.0625 C 6.800781,-0.128906 6.628906,-0.0507812 6.421875,0 6.222656,0.0625 6.015625,0.09375 5.796875,0.09375 5.015625,0.09375 4.398438,-0.25 3.953125,-0.9375 L 2.875,-2.59375 C 2.757812,-2.769531 2.644531,-2.890625 2.53125,-2.953125 2.414062,-3.023438 2.285156,-3.0625 2.140625,-3.0625 H 2.09375 V 0 H 0.765625 v -7.421875 h 2.3125 c 0.9375,0 1.644531,0.199219 2.125,0.59375 0.488281,0.386719 0.734375,0.917969 0.734375,1.59375 0,0.417969 -0.09375,0.777344 -0.28125,1.078125 -0.179688,0.292969 -0.421875,0.527344 -0.734375,0.703125 -0.3125,0.167969 -0.667969,0.277344 -1.0625,0.328125 0.207031,0.117188 0.398437,0.304688 0.578125,0.5625 l 0.578125,0.875 c 0.15625,0.21875 0.300781,0.371094 0.4375,0.453125 0.132813,0.085937 0.304687,0.125 0.515625,0.125 0.238281,0 0.457031,-0.0625 0.65625,-0.1875 z M 2.984375,-6.3125 H 2.09375 v 2.1875 h 0.828125 c 0.570313,0 0.992187,-0.085938 1.265625,-0.265625 0.269531,-0.175781 0.40625,-0.457031 0.40625,-0.84375 0,-0.71875 -0.539062,-1.078125 -1.609375,-1.078125 z m 0,0"
                   id="path81" /></g></g></g><g
             fill="#000000"
             fill-opacity="1"
             id="g87"><g
               transform="translate(246.98828,11.651437)"
               id="g86"><g
                 id="g85" /></g></g><g
             fill="#000000"
             fill-opacity="1"
             id="g90"><g
               transform="translate(256.17339,11.651437)"
               id="g89"><g
                 id="g88"><path
                   d="M 5.546875,-6.25 H 2.09375 v 1.90625 H 5.375 v 1.171875 H 2.09375 v 2 H 5.671875 L 5.578125,0 h -4.8125 v -7.421875 h 4.78125 z m 0,0"
                   id="path87" /></g></g></g></g></g></g></g></svg>
